<?xml version="1.0" encoding="utf-8"?>
<!-- Generator: Adobe Illustrator 26.0.3, SVG Export Plug-In . SVG Version: 6.00 Build 0)  -->
<svg version="1.1" id="Layer_1" xmlns="http://www.w3.org/2000/svg" xmlns:xlink="http://www.w3.org/1999/xlink" x="0px" y="0px"
	 viewBox="0 0 32 32" style="enable-background:new 0 0 32 32;" xml:space="preserve">
<style type="text/css">
	.st0{fill:#14D760;}
</style>
<path class="st0" d="M16,0C7.2,0,0,7.2,0,16s7.2,16,16,16s16-7.2,16-16S24.8,0,16,0z M16.4,21.3c1.3,0,2.7-0.6,3.7-2.3h4.6
	c-1.4,3.8-4.5,6.1-8.5,6.1c-4.3,0-9-3.5-9-9.1c0-5.2,4.3-8.9,8.9-8.9c2.1,0,6.7,1,8.5,6.2h-4.6c-0.5-0.9-1.4-2.5-3.9-2.5
	c-2.5,0-4.9,1.8-4.9,5.3C11.3,18.9,13.4,21.3,16.4,21.3z"/>
</svg>
