<?xml version="1.0" encoding="utf-8"?>
<!-- Generator: Adobe Illustrator 26.0.3, SVG Export Plug-In . SVG Version: 6.00 Build 0)  -->
<svg version="1.1" id="Layer_1" xmlns="http://www.w3.org/2000/svg" xmlns:xlink="http://www.w3.org/1999/xlink" x="0px" y="0px"
	 viewBox="0 0 36 36" style="enable-background:new 0 0 36 36;" xml:space="preserve">
<style type="text/css">
	.st0{fill:#14D760;}
</style>
<path class="st0" d="M18,0.4c-9.9,0-18,8.1-18,18s8.1,18,18,18s18-8.1,18-18S27.9,0.4,18,0.4z M18.5,24.4c1.5,0,3-0.7,4.2-2.6h5.1
	c-1.5,4.2-5.1,6.8-9.5,6.8c-4.9,0-10.1-3.9-10.1-10.2c0-5.8,4.8-10.1,10.1-10.1c2.4,0,7.6,1.1,9.5,6.9h-5.1c-0.5-1-1.6-2.8-4.4-2.8
	c-2.8,0-5.5,2.1-5.5,6C12.7,21.6,15,24.4,18.5,24.4z"/>
</svg>
