<?xml version="1.0" encoding="utf-8"?>
<!-- Generator: Adobe Illustrator 26.0.3, SVG Export Plug-In . SVG Version: 6.00 Build 0)  -->
<svg version="1.1" id="Layer_1" xmlns="http://www.w3.org/2000/svg" xmlns:xlink="http://www.w3.org/1999/xlink" x="0px" y="0px"
	 viewBox="0 0 200 45.4" style="enable-background:new 0 0 200 45.4;" xml:space="preserve">
<style type="text/css">
	.st0{fill:#14D760;}
</style>
<g>
	<path class="st0" d="M34.3,23.5c-2.7,7.4-8.8,11.9-16.6,11.9C9.1,35.4,0,28.6,0,17.6C0,7.4,8.4,0,17.6,0c4.2,0,13.3,1.9,16.7,12.1
		h-9c-1-1.7-2.8-4.8-7.7-4.8C12.7,7.3,8,10.9,8,17.7c0,5.7,4,10.4,10,10.4c2.6,0,5.3-1.3,7.4-4.6H34.3z"/>
	<path class="st0" d="M39.8,1.1h7.3v2.9h0.1c1.5-2.2,3-4.1,7.1-4.1H55v7.7c-7.2,0.3-7.2,6-7.2,8v18.7h-8V1.1z"/>
	<path class="st0" d="M64.9,21.3c0.4,2.2,3.5,6.8,9.1,6.8c3.5,0,6.2-1.5,7.7-4.2h8.4c-1.9,6-8.2,11.5-16,11.5
		c-10.1,0-17.5-7.9-17.5-17.6C56.5,8.4,63.5,0,74,0c10.9,0,17.2,8.9,17.2,17.3c0,1.6-0.2,2.9-0.5,4H64.9z M83,14.9
		c-0.9-5.3-4.7-7.6-9-7.6c-3.2,0-7.9,1.4-9.4,7.6H83z"/>
	<path class="st0" d="M129.6,34.3h-7.3v-4.1c-2.5,3-7.4,5.2-11.6,5.2c-8.5,0-16.1-6.8-16.1-17.9C94.6,7.4,102,0,111.2,0
		c6.8,0,10.8,4.8,11,5.3h0.1V1.1h7.3V34.3z M112.4,7.3c-6.5,0-9.9,5.6-9.9,10.6c0,5.6,4.2,10.2,9.9,10.2c5.5,0,9.7-4.3,9.7-10.5
		C122.1,10.8,117.1,7.3,112.4,7.3z"/>
	<path class="st0" d="M132.6,1.1h8.6l8,22h0.2l7.5-22h8.7l-13.5,33.2H146L132.6,1.1z"/>
	<path class="st0" d="M178.5,31.2L166.3,1.1h9.1l7.5,21.3l8-21.3h9l-19.1,44.2h-8.5L178.5,31.2z"/>
</g>
</svg>
